IKResults
version=1
nRows=10
nColumns=40
inDegrees=yes

Units are S.I. units (second, meters, Newtons, ...)
Angles are in degrees.

endheader
time	pelvis_tilt	pelvis_list	pelvis_rotation	pelvis_tx	pelvis_ty	pelvis_tz	hip_flexion_r	hip_adduction_r	hip_rotation_r	knee_angle_r	knee_angle_r_beta	ankle_angle_r	subtalar_angle_r	mtp_angle_r	hip_flexion_l	hip_adduction_l	hip_rotation_l	knee_angle_l	knee_angle_l_beta	ankle_angle_l	subtalar_angle_l	mtp_angle_l	lumbar_extension	lumbar_bending	lumbar_rotation	arm_flex_r	arm_add_r	arm_rot_r	elbow_flex_r	pro_sup_r	wrist_flex_r	wrist_dev_r	arm_flex_l	arm_add_l	arm_rot_l	elbow_flex_l	pro_sup_l	wrist_flex_l	wrist_dev_l
      0.88000000	      0.06497999	     -9.60433084	     -7.52299423	      1.32591133	      0.96712786	      0.29820484	     38.04357532	     13.70276031	    -10.78343130	    -39.79255108	     -0.69451103	    -18.43515862	    -14.00891146	     19.28731472	    -24.20024261	      2.74273076	      0.41887643	    -28.66304741	     -0.50026455	    -25.45786813	     13.60877742	      0.12978849	     -9.56488042	      8.42805466	     -6.07360333	    -48.38842206	    -23.67649890	     -7.58747067	    129.73302290	     89.95437384	      0.00000000	      0.00000000	    -15.69826266	     25.14680144	    -10.79860858	    144.65604934	     89.95437384	      0.00000000	      0.00000000
      0.89000000	      0.40000602	     -8.87837130	     -7.64684523	      1.36660091	      0.96773469	      0.29891336	     36.64135124	     13.06795086	    -11.14190900	    -35.95218962	     -0.62748408	    -19.42743152	    -12.23424304	     18.56833050	    -23.88713838	      1.99211880	      0.64560189	    -31.08643752	     -0.54256069	    -23.36738057	     14.82191024	      0.94013204	     -9.51029945	      7.67192605	     -6.26058743	    -48.54879642	    -23.12314027	     -7.68557229	    129.84501697	     89.95437384	      0.00000000	      0.00000000	    -15.76125850	     25.26067410	    -10.88169551	    144.88305599	     89.95437384	      0.00000000	      0.00000000
      0.90000000	      0.79000347	     -8.42571492	     -7.55625276	      1.40772543	      0.96779257	      0.29961381	     35.00313024	     12.59055837	    -11.82823227	    -32.30023958	     -0.56374553	    -19.90465274	     -9.55399549	     17.50010430	    -23.47660486	      1.79787858	      1.24405738	    -33.64792388	     -0.58726706	    -21.57333268	     15.85167424	      1.69768001	     -9.52724376	      7.18630171	     -6.60214984	    -48.47479866	    -22.63671798	     -7.68208798	    129.72374021	     89.95437384	      0.00000000	      0.00000000	    -16.02326791	     25.28243145	    -10.88350808	    144.89910736	     89.95437384	      0.00000000	      0.00000000
      0.91000000	      1.70715020	     -7.97453537	     -7.13563782	      1.44847065	      0.96791688	      0.29945912	     32.79841616	     11.78335815	    -13.08399600	    -29.05093771	     -0.50703451	    -21.42668864	     -6.92247567	      7.81718104	    -23.38253730	      1.66147982	      1.62886290	    -36.41688178	     -0.63559449	    -18.78205927	     15.92682989	     11.20127062	    -10.17726829	      6.70235441	     -7.02639275	    -48.05842579	    -22.12605509	     -7.64240852	    129.44843086	     89.95437384	      0.00000000	      0.00000000	    -15.99288439	     25.31027028	    -10.93167888	    144.54719294	     89.95437384	      0.00000000	      0.00000000
      0.92000000	      2.31403813	     -7.97352676	     -6.67978335	      1.48973428	      0.96677057	      0.29955067	     30.98462263	     11.50438103	    -14.41863738	    -26.63642220	     -0.46489327	    -21.66146713	     -4.02889355	      7.17334556	    -22.91175029	      2.26260802	      2.43385269	    -39.24514089	     -0.68495692	    -16.26642815	     16.72366138	     11.12556142	    -10.50829205	      6.78766877	     -7.44632551	    -47.57273081	    -21.74620693	     -7.53654980	    129.07765695	     89.95437384	      0.00000000	      0.00000000	    -16.27764733	     25.08666973	    -10.88947432	    143.99975285	     89.95437384	      0.00000000	      0.00000000
      0.93000000	      3.03371966	     -8.01382211	     -6.23547587	      1.53086642	      0.96488959	      0.29928543	     29.08837915	     11.26089984	    -15.36283992	    -24.90167895	     -0.43461629	    -22.35780687	     -1.45627598	      6.60211227	    -22.43918283	      2.84464559	      2.99841100	    -42.08357016	     -0.73449686	    -13.38912504	     17.55916423	     11.10867098	    -10.97871899	      6.95713344	     -7.64208040	    -46.97868586	    -21.27464838	     -7.59629969	    128.68079544	     89.95437384	      0.00000000	      0.00000000	    -16.42168275	     24.80204343	    -10.94896426	    143.16377584	     89.95437384	      0.00000000	      0.00000000
      0.94000000	      4.24182359	     -8.27295910	     -5.49390865	      1.57260153	      0.96281036	      0.29860795	     26.63799699	     10.93397506	    -16.90852079	    -23.83987147	     -0.41608425	    -23.81583200	      1.21523404	      0.96750220	    -22.41436630	      3.75873666	      3.47147285	    -44.86105059	     -0.78297304	    -10.36648196	     17.92634480	     16.26089541	    -11.94793370	      7.40569615	     -8.02767451	    -46.17434678	    -21.17837201	     -7.44530762	    128.33531967	     89.95437384	      0.00000000	      0.00000000	    -16.69386875	     24.36329808	    -10.77225563	    142.15107175	     89.95437384	      0.00000000	      0.00000000
      0.95000000	      5.22212884	     -8.70659661	     -4.96434176	      1.61405787	      0.95955986	      0.29840909	     24.20461535	     11.40423359	    -16.47318243	    -22.91457809	     -0.39993483	    -24.51868286	      1.38473674	      0.80590573	    -22.02085403	      4.93233023	      4.16376384	    -47.74690260	     -0.83334066	     -7.38714017	     18.48628336	     16.63829423	    -12.72341371	      8.05929398	     -8.13902189	    -45.22996504	    -21.14317826	     -7.15398695	    127.92145894	     89.95437384	      0.00000000	      0.00000000	    -17.11447178	     23.87201916	    -10.53310563	    140.98001098	     89.95437384	      0.00000000	      0.00000000
      0.96000000	      6.31862016	     -9.14429395	     -4.52989504	      1.65531926	      0.95548549	      0.29808528	     21.61913769	     12.06552121	    -14.89009033	    -22.60769113	     -0.39457865	    -24.37021647	      0.21423383	      1.18799079	    -21.58252233	      6.05658472	      4.81141451	    -50.70804072	     -0.88502227	     -4.32440717	     18.86107682	     18.20553156	    -13.63964301	      8.75283332	     -7.96769850	    -44.19111605	    -21.25924735	     -6.86096147	    127.58155981	     89.95437384	      0.00000000	      0.00000000	    -17.48308403	     23.28592919	    -10.55108140	    139.63853999	     89.95437384	      0.00000000	      0.00000000
      0.97000000	      7.36183605	     -9.43746661	     -4.23047615	      1.69635561	      0.95028712	      0.29768811	     19.11559976	     12.78418680	    -12.18257599	    -22.92614472	     -0.40013671	    -23.86092400	     -2.41981515	      2.52556473	    -20.88305700	      6.90890609	      5.18142644	    -53.80724718	     -0.93911362	     -1.12342183	     19.10145634	     20.02313446	    -14.51579922	      9.31979802	     -7.61004462	    -43.02727309	    -21.37138706	     -6.52266033	    127.22583215	     89.95437384	      0.00000000	      0.00000000	    -17.90364613	     22.60188785	    -10.30896483	    138.18003637	     89.95437384	      0.00000000	      0.00000000
